<svg width="36" height="35" viewBox="0 0 36 35" fill="none" xmlns="http://www.w3.org/2000/svg">
<path d="M25.8618 19.8891L24.8012 18.8284C24.6136 18.6409 24.3593 18.5355 24.0941 18.5355C23.8289 18.5355 23.5745 18.6409 23.387 18.8284C23.1994 19.016 23.0941 19.2703 23.0941 19.5355C23.0941 19.8007 23.1994 20.0551 23.387 20.2426L22.6799 19.5355C22.4923 19.348 22.238 19.2426 21.9728 19.2426C21.7075 19.2426 21.4532 19.348 21.2656 19.5355C21.0781 19.7231 20.9728 19.9774 20.9728 20.2426C20.9728 20.5079 21.0781 20.7622 21.2656 20.9497L22.3263 22.0104C22.1388 21.8229 21.8844 21.7175 21.6192 21.7175C21.354 21.7175 21.0996 21.8229 20.9121 22.0104C20.7246 22.1979 20.6192 22.4523 20.6192 22.7175C20.6192 22.9827 20.7246 23.2371 20.9121 23.4246L25.1547 27.6673L23.8515 27.1094C23.5226 26.9678 23.1544 26.946 22.8111 27.048C22.4678 27.1499 22.1711 27.3691 21.9728 27.6673C21.8898 27.7918 21.8367 27.9339 21.8175 28.0823C21.7983 28.2307 21.8136 28.3816 21.8621 28.5232C21.9107 28.6647 21.9912 28.7932 22.0975 28.8986C22.2037 29.004 22.3328 29.0835 22.4748 29.131L26.5689 30.4957L26.675 30.5593C28.6903 31.7685 31.2712 31.4503 32.9329 29.7886C33.6831 29.0384 34.1045 28.021 34.1045 26.9602C34.1045 25.8993 33.6831 24.8819 32.9329 24.1317L27.2761 18.4749C27.0885 18.2873 26.8342 18.182 26.5689 18.182C26.3037 18.182 26.0494 18.2873 25.8618 18.4749C25.6743 18.6624 25.5689 18.9168 25.5689 19.182C25.5689 19.4472 25.6743 19.7015 25.8618 19.8891ZM25.8618 19.8891L28.6903 22.7175M21.6192 21.3033L25.8618 25.5459M23.0334 19.8891L26.5689 23.4246" stroke="#4CAF4F" stroke-linecap="round" stroke-linejoin="round"/>
<path d="M14.8723 22.8618L15.933 21.8012C16.1205 21.6136 16.2259 21.3593 16.2259 21.0941C16.2259 20.8289 16.1205 20.5745 15.933 20.387C15.7454 20.1994 15.4911 20.0941 15.2259 20.0941C14.9606 20.0941 14.7063 20.1994 14.5187 20.387L15.2259 19.6799C15.4134 19.4923 15.5187 19.238 15.5187 18.9728C15.5187 18.7075 15.4134 18.4532 15.2259 18.2656C15.0383 18.0781 14.784 17.9728 14.5187 17.9728C14.2535 17.9728 13.9992 18.0781 13.8116 18.2656L12.751 19.3263C12.9385 19.1388 13.0439 18.8844 13.0439 18.6192C13.0439 18.354 12.9385 18.0996 12.751 17.9121C12.5634 17.7246 12.3091 17.6192 12.0439 17.6192C11.7787 17.6192 11.5243 17.7246 11.3368 17.9121L7.09413 22.1547L7.65203 20.8515C7.79362 20.5226 7.81534 20.1544 7.71339 19.8111C7.61144 19.4678 7.3923 19.1711 7.09413 18.9728C6.96955 18.8898 6.82753 18.8367 6.6791 18.8175C6.53066 18.7983 6.3798 18.8136 6.23822 18.8621C6.09664 18.9107 5.96816 18.9912 5.86275 19.0975C5.75734 19.2037 5.67784 19.3328 5.63041 19.4748L4.2657 23.5689L4.20206 23.675C2.99291 25.6903 3.3111 28.2712 4.9728 29.9329C5.72295 30.6831 6.74037 31.1045 7.80123 31.1045C8.8621 31.1045 9.87951 30.6831 10.6297 29.9329L16.2865 24.2761C16.474 24.0885 16.5794 23.8342 16.5794 23.5689C16.5794 23.3037 16.474 23.0494 16.2865 22.8618C16.099 22.6743 15.8446 22.5689 15.5794 22.5689C15.3142 22.5689 15.0598 22.6743 14.8723 22.8618ZM14.8723 22.8618L12.0439 25.6903M13.4581 18.6192L9.21545 22.8618M14.8723 20.0334L11.3368 23.5689" stroke="#4CAF4F" stroke-linecap="round" stroke-linejoin="round"/>
<path d="M15.8643 12.6307V14.1307C15.8643 14.3959 15.9697 14.6502 16.1572 14.8378C16.3447 15.0253 16.5991 15.1307 16.8643 15.1307C17.1295 15.1307 17.3839 15.0253 17.5714 14.8378C17.759 14.6502 17.8643 14.3959 17.8643 14.1307V15.1307C17.8643 15.3959 17.9697 15.6502 18.1572 15.8378C18.3447 16.0253 18.5991 16.1307 18.8643 16.1307C19.1295 16.1307 19.3839 16.0253 19.5714 15.8378C19.759 15.6502 19.8643 15.3959 19.8643 15.1307V13.6307C19.8643 13.8959 19.9697 14.1502 20.1572 14.3378C20.3447 14.5253 20.5991 14.6307 20.8643 14.6307C21.1295 14.6307 21.3839 14.5253 21.5714 14.3378C21.759 14.1502 21.8643 13.8959 21.8643 13.6307V7.63068L22.3913 8.94668C22.5238 9.2794 22.7688 9.5551 23.0836 9.72577C23.3985 9.89644 23.7632 9.95126 24.1143 9.88068C24.2611 9.85125 24.3991 9.78841 24.5176 9.69701C24.6361 9.60562 24.732 9.48814 24.7978 9.3537C24.8635 9.21925 24.8974 9.07145 24.8968 8.92178C24.8962 8.77211 24.8612 8.62459 24.7943 8.49068L22.8643 4.63068L22.8343 4.51068C22.2643 2.23068 20.2143 0.630676 17.8643 0.630676C16.8034 0.630676 15.786 1.0521 15.0359 1.80225C14.2857 2.5524 13.8643 3.56981 13.8643 4.63068L13.8643 12.6307C13.8643 12.8959 13.9697 13.1502 14.1572 13.3378C14.3447 13.5253 14.5991 13.6307 14.8643 13.6307C15.1295 13.6307 15.3839 13.5253 15.5714 13.3378C15.759 13.1502 15.8643 12.8959 15.8643 12.6307ZM15.8643 12.6307L15.8643 8.63068M19.8643 14.6307V8.63068M17.8643 14.6307V9.63068" stroke="#4CAF4F" stroke-linecap="round" stroke-linejoin="round"/>
</svg>
